SplineFontDB: 3.2
FontName: FBKINGDOM-FONT
FullName: FBKINGDOM-FONT
FamilyName: FBKINGDOM-FONT
Weight: Regular
Copyright: Copyright (c) 2024, kbinani
UComments: "2024-11-7: Created with FontForge (http://fontforge.org)"
Version: 001.000
ItalicAngle: 0
UnderlinePosition: -100
UnderlineWidth: 50
Ascent: 800
Descent: 200
InvalidEm: 0
LayerCount: 2
Layer: 0 0 "+gMyXYgAA" 1
Layer: 1 0 "+Uk2XYgAA" 0
XUID: [1021 716 1131550121 30788]
StyleMap: 0x0000
FSType: 0
OS2Version: 0
OS2_WeightWidthSlopeOnly: 0
OS2_UseTypoMetrics: 1
CreationTime: 1730956758
ModificationTime: 1731087893
PfmFamily: 17
TTFWeight: 400
TTFWidth: 5
LineGap: 90
VLineGap: 90
OS2TypoAscent: 0
OS2TypoAOffset: 1
OS2TypoDescent: 0
OS2TypoDOffset: 1
OS2TypoLinegap: 90
OS2WinAscent: 0
OS2WinAOffset: 1
OS2WinDescent: 0
OS2WinDOffset: 1
HheadAscent: 0
HheadAOffset: 1
HheadDescent: 0
HheadDOffset: 1
OS2Vendor: 'PfEd'
MarkAttachClasses: 1
DEI: 91125
LangName: 1033
Encoding: UnicodeBmp
UnicodeInterp: none
NameList: AGL For New Fonts
DisplaySize: -48
AntiAlias: 1
FitToEm: 0
WinInfo: 12388 38 14
BeginPrivate: 0
EndPrivate
TeXData: 1 0 0 346030 173015 115343 0 1048576 115343 783286 444596 497025 792723 393216 433062 380633 303038 157286 324010 404750 52429 2506097 1059062 262144
BeginChars: 65536 167

StartChar: uni3042
Encoding: 12354 12354 0
Width: 641
Flags: W
HStem: -67.5 27.9648<179.792 479.208>
VStem: 479.208 30.0615<-39.5352 540.58>
LayerCount: 2
Fore
SplineSet
509.26953125 663.4609375 m 1
 509.26953125 -67.5 l 1
 132 -67.5 l 1
 509.26953125 663.4609375 l 1
479.208007812 540.580078125 m 1
 179.791992188 -39.53515625 l 1
 479.208007812 -39.53515625 l 1
 479.208007812 540.580078125 l 1
EndSplineSet
Validated: 524289
EndChar

StartChar: uni3044
Encoding: 12356 12356 1
Width: 495
Flags: W
HStem: 434.355 22.7197<204.277 290.89> 642.802 22.7217<204.277 290.89>
VStem: 132 22.7207<506.632 593.245> 201.152 92.8633<-67.5 402.742> 340.446 22.7217<506.632 593.245>
LayerCount: 2
Fore
SplineSet
201.15234375 -67.5 m 1
 201.15234375 402.7421875 l 1
 294.015625 402.7421875 l 1
 294.015625 -67.5 l 1
 201.15234375 -67.5 l 1
247.583007812 665.5234375 m 0
 311.375976562 665.5234375 363.16796875 613.731445312 363.16796875 549.938476562 c 0
 363.16796875 486.146484375 311.375976562 434.35546875 247.583007812 434.35546875 c 0
 183.791015625 434.35546875 132.000976562 486.146484375 132 549.938476562 c 0
 132 613.731445312 183.791015625 665.522460938 247.583007812 665.5234375 c 0
247.583007812 642.801757812 m 0
 196.331054688 642.801757812 154.720703125 601.19140625 154.720703125 549.938476562 c 0
 154.720703125 498.686523438 196.331054688 457.075195312 247.583007812 457.075195312 c 0
 298.8359375 457.075195312 340.446289062 498.686523438 340.446289062 549.938476562 c 0
 340.446289062 601.19140625 298.8359375 642.801757812 247.583007812 642.801757812 c 0
EndSplineSet
Validated: 524289
EndChar

StartChar: uni3046
Encoding: 12358 12358 2
Width: 593
Flags: W
HStem: 56.1973 27.6445<152.02 441.816> 512.817 27.6445<152.02 441.816>
VStem: 132 20.0195<83.8418 512.817> 441.816 20.0186<83.8418 512.817>
LayerCount: 2
Fore
SplineSet
132 540.461914062 m 1
 461.834960938 540.461914062 l 1
 461.834960938 56.197265625 l 1
 132 56.197265625 l 1
 132 540.461914062 l 1
152.01953125 512.817382812 m 1
 152.01953125 83.841796875 l 1
 441.81640625 83.841796875 l 1
 441.81640625 512.817382812 l 1
 152.01953125 512.817382812 l 1
EndSplineSet
Validated: 524289
EndChar

StartChar: uni3048
Encoding: 12360 12360 3
Width: 641
Flags: W
HStem: 639.535 27.9648<179.792 479.207>
VStem: 479.207 30.0615<59.4199 639.535>
LayerCount: 2
Fore
SplineSet
509.268554688 -63.4609375 m 1
 132 667.5 l 1
 509.268554688 667.5 l 1
 509.268554688 -63.4609375 l 1
479.20703125 59.419921875 m 1
 479.20703125 639.53515625 l 1
 179.791992188 639.53515625 l 1
 479.20703125 59.419921875 l 1
EndSplineSet
Validated: 524289
EndChar

StartChar: uni304A
Encoding: 12362 12362 4
Width: 605
Flags: W
HStem: 127.423 25.6855<243.667 362.146> 443.551 25.6855<243.667 362.145>
VStem: 132 25.6855<239.091 357.569> 448.128 25.6855<239.091 357.57>
LayerCount: 2
Fore
SplineSet
302.90625 469.236328125 m 0
 397.231445312 469.236328125 473.8125 392.65625 473.813476562 298.330078125 c 0
 473.813476562 204.00390625 397.232421875 127.422851562 302.90625 127.422851562 c 0
 208.580078125 127.423828125 132 204.004882812 132 298.330078125 c 0
 132.000976562 392.655273438 208.581054688 469.235351562 302.90625 469.236328125 c 0
302.90625 443.55078125 m 0
 222.756835938 443.549804688 157.686523438 378.479492188 157.685546875 298.330078125 c 0
 157.685546875 218.180664062 222.756835938 153.109375 302.90625 153.108398438 c 0
 383.055664062 153.108398438 448.127929688 218.180664062 448.127929688 298.330078125 c 0
 448.126953125 378.48046875 383.055664062 443.55078125 302.90625 443.55078125 c 0
EndSplineSet
Validated: 524289
EndChar

StartChar: uni304B
Encoding: 12363 12363 5
Width: 959
Flags: W
HStem: -67.5 27.9648<498.516 797.93>
VStem: 132 100.767<-24.6055 667.5> 797.93 30.0615<-39.5352 540.58>
LayerCount: 2
Fore
SplineSet
827.991210938 663.4609375 m 1
 827.991210938 -67.5 l 1
 450.724609375 -67.5 l 1
 827.991210938 663.4609375 l 1
797.9296875 540.580078125 m 1
 498.515625 -39.53515625 l 1
 797.9296875 -39.53515625 l 1
 797.9296875 540.580078125 l 1
132 667.5 m 1
 232.766601562 667.5 l 1
 232.766601562 -24.60546875 l 1
 555.5 667.5 l 1
 626.62890625 667.5 l 1
 283.893554688 -67.5 l 1
 232.766601562 -67.5 l 1
 212.763671875 -67.5 l 1
 132 -67.5 l 1
 132 667.5 l 1
EndSplineSet
Validated: 524289
EndChar

StartChar: uni304F
Encoding: 12367 12367 6
Width: 1100
Flags: W
HStem: 12.2764 27.6445<658.922 948.718> 468.896 27.6445<658.922 948.718>
VStem: 132 100.767<-24.6055 667.5> 638.903 20.0186<39.9209 468.896> 948.718 20.0186<39.9209 468.896>
LayerCount: 2
Fore
SplineSet
638.903320312 496.541015625 m 1
 968.736328125 496.541015625 l 1
 968.736328125 12.2763671875 l 1
 638.903320312 12.2763671875 l 1
 638.903320312 496.541015625 l 1
658.921875 468.896484375 m 1
 658.921875 39.9208984375 l 1
 948.717773438 39.9208984375 l 1
 948.717773438 468.896484375 l 1
 658.921875 468.896484375 l 1
132 667.5 m 1
 232.766601562 667.5 l 1
 232.766601562 -24.60546875 l 1
 555.5 667.5 l 1
 626.62890625 667.5 l 1
 283.893554688 -67.5 l 1
 232.766601562 -67.5 l 1
 212.763671875 -67.5 l 1
 132 -67.5 l 1
 132 667.5 l 1
EndSplineSet
Validated: 524289
EndChar

StartChar: uni3051
Encoding: 12369 12369 7
Width: 1139
Flags: W
HStem: 639.535 27.9648<678.217 977.63>
VStem: 132 100.767<-24.6055 667.5> 977.63 30.0605<59.4199 639.535>
LayerCount: 2
Fore
SplineSet
1007.69042969 -63.4609375 m 1
 630.424804688 667.5 l 1
 1007.69042969 667.5 l 1
 1007.69042969 -63.4609375 l 1
977.629882812 59.419921875 m 1
 977.629882812 639.53515625 l 1
 678.216796875 639.53515625 l 1
 977.629882812 59.419921875 l 1
132 667.5 m 1
 232.766601562 667.5 l 1
 232.766601562 -24.60546875 l 1
 555.5 667.5 l 1
 626.62890625 667.5 l 1
 283.893554688 -67.5 l 1
 232.766601562 -67.5 l 1
 212.763671875 -67.5 l 1
 132 -67.5 l 1
 132 667.5 l 1
EndSplineSet
Validated: 524289
EndChar

StartChar: uni3053
Encoding: 12371 12371 8
Width: 1040
Flags: W
HStem: 127.423 25.6855<678.807 797.286> 443.551 25.6855<678.807 797.285>
VStem: 132 100.767<-24.6055 667.5> 567.142 25.6846<239.091 357.569> 883.268 25.6846<239.091 357.569>
LayerCount: 2
Fore
SplineSet
738.045898438 469.236328125 m 0
 832.372070312 469.236328125 908.952148438 392.65625 908.952148438 298.330078125 c 0
 908.952148438 204.004882812 832.372070312 127.423828125 738.045898438 127.422851562 c 0
 643.720703125 127.424804688 567.141601562 204.004882812 567.141601562 298.330078125 c 0
 567.142578125 392.655273438 643.721679688 469.235351562 738.045898438 469.236328125 c 0
738.045898438 443.55078125 m 0
 657.897460938 443.549804688 592.827148438 378.479492188 592.826171875 298.330078125 c 0
 592.826171875 218.181640625 657.897460938 153.109375 738.045898438 153.108398438 c 0
 818.196289062 153.109375 883.267578125 218.180664062 883.267578125 298.330078125 c 0
 883.266601562 378.479492188 818.1953125 443.55078125 738.045898438 443.55078125 c 0
132 667.5 m 1
 232.766601562 667.5 l 1
 232.766601562 -24.60546875 l 1
 555.5 667.5 l 1
 626.62890625 667.5 l 1
 283.893554688 -67.5 l 1
 232.766601562 -67.5 l 1
 212.763671875 -67.5 l 1
 132 -67.5 l 1
 132 667.5 l 1
EndSplineSet
Validated: 524289
EndChar

StartChar: uni3055
Encoding: 12373 12373 9
Width: 1054
Flags: W
HStem: -67.5 21.8516<141.454 462.76 592.708 892.122> 645.648 21.8516<207.335 532.839>
VStem: 892.122 30.0615<-39.5352 540.58>
LayerCount: 2
Fore
SplineSet
922.18359375 663.4609375 m 1
 922.18359375 -67.5 l 1
 544.916015625 -67.5 l 1
 922.18359375 663.4609375 l 1
892.122070312 540.580078125 m 1
 592.708007812 -39.53515625 l 1
 892.122070312 -39.53515625 l 1
 892.122070312 540.580078125 l 1
132 667.5 m 1
 181.145507812 667.5 l 1
 197.201171875 667.5 l 1
 532.838867188 667.5 l 1
 532.838867188 645.6484375 l 1
 207.334960938 645.6484375 l 1
 538.094726562 -67.5 l 1
 493.1484375 -67.5 l 1
 472.893554688 -67.5 l 1
 141.454101562 -67.5 l 1
 141.454101562 -45.6484375 l 1
 462.759765625 -45.6484375 l 1
 132 667.5 l 1
EndSplineSet
Validated: 524289
EndChar

StartChar: uni3057
Encoding: 12375 12375 10
Width: 1029
Flags: W
HStem: -67.5 21.8516<141.454 462.76> 434.355 22.7197<738.299 824.912> 645.648 21.8516<207.335 532.839 745.012 818.199>
VStem: 666.022 22.7207<506.632 593.245> 735.175 92.8633<-67.5 402.742> 874.469 22.7217<506.632 593.245>
LayerCount: 2
Fore
SplineSet
735.174804688 -67.5 m 1
 735.174804688 402.7421875 l 1
 828.038085938 402.7421875 l 1
 828.038085938 -67.5 l 1
 735.174804688 -67.5 l 1
781.60546875 665.5234375 m 0
 845.3984375 665.5234375 897.190429688 613.731445312 897.190429688 549.938476562 c 0
 897.189453125 486.146484375 845.3984375 434.35546875 781.60546875 434.35546875 c 0
 717.813476562 434.35546875 666.0234375 486.146484375 666.022460938 549.938476562 c 0
 666.022460938 613.731445312 717.813476562 665.522460938 781.60546875 665.5234375 c 0
781.60546875 642.801757812 m 0
 730.353515625 642.801757812 688.743164062 601.19140625 688.743164062 549.938476562 c 0
 688.743164062 498.686523438 730.353515625 457.075195312 781.60546875 457.075195312 c 0
 832.858398438 457.075195312 874.46875 498.686523438 874.46875 549.938476562 c 0
 874.46875 601.19140625 832.858398438 642.801757812 781.60546875 642.801757812 c 0
132 667.5 m 1
 181.145507812 667.5 l 1
 197.201171875 667.5 l 1
 532.838867188 667.5 l 1
 532.838867188 645.6484375 l 1
 207.334960938 645.6484375 l 1
 538.094726562 -67.5 l 1
 493.1484375 -67.5 l 1
 472.893554688 -67.5 l 1
 141.454101562 -67.5 l 1
 141.454101562 -45.6484375 l 1
 462.759765625 -45.6484375 l 1
 132 667.5 l 1
EndSplineSet
Validated: 524289
EndChar

StartChar: uni3059
Encoding: 12377 12377 11
Width: 1101
Flags: W
HStem: -67.5 21.8516<141.454 462.76> 56.1973 27.6445<659.98 949.776> 512.817 27.6445<659.98 949.776> 645.648 21.8516<207.335 532.839>
VStem: 639.961 20.0195<83.8418 512.817> 949.776 20.0186<83.8418 512.817>
LayerCount: 2
Fore
SplineSet
639.9609375 540.461914062 m 1
 969.794921875 540.461914062 l 1
 969.794921875 56.197265625 l 1
 639.9609375 56.197265625 l 1
 639.9609375 540.461914062 l 1
659.98046875 512.817382812 m 1
 659.98046875 83.841796875 l 1
 949.776367188 83.841796875 l 1
 949.776367188 512.817382812 l 1
 659.98046875 512.817382812 l 1
132 667.5 m 1
 181.145507812 667.5 l 1
 197.201171875 667.5 l 1
 532.838867188 667.5 l 1
 532.838867188 645.6484375 l 1
 207.334960938 645.6484375 l 1
 538.094726562 -67.5 l 1
 493.1484375 -67.5 l 1
 472.893554688 -67.5 l 1
 141.454101562 -67.5 l 1
 141.454101562 -45.6484375 l 1
 462.759765625 -45.6484375 l 1
 132 667.5 l 1
EndSplineSet
Validated: 524289
EndChar

StartChar: uni305B
Encoding: 12379 12379 12
Width: 1055
Flags: W
HStem: -67.5 21.8516<141.454 462.76> 645.648 21.8516<207.335 532.839 594.079 893.492>
VStem: 893.492 30.0615<59.4199 639.535>
LayerCount: 2
Fore
SplineSet
923.553710938 -63.4609375 m 1
 546.287109375 667.5 l 1
 923.553710938 667.5 l 1
 923.553710938 -63.4609375 l 1
893.4921875 59.419921875 m 1
 893.4921875 639.53515625 l 1
 594.079101562 639.53515625 l 1
 893.4921875 59.419921875 l 1
132 667.5 m 1
 181.145507812 667.5 l 1
 197.201171875 667.5 l 1
 532.838867188 667.5 l 1
 532.838867188 645.6484375 l 1
 207.334960938 645.6484375 l 1
 538.094726562 -67.5 l 1
 493.1484375 -67.5 l 1
 472.893554688 -67.5 l 1
 141.454101562 -67.5 l 1
 141.454101562 -45.6484375 l 1
 462.759765625 -45.6484375 l 1
 132 667.5 l 1
EndSplineSet
Validated: 524289
EndChar

StartChar: uni305D
Encoding: 12381 12381 13
Width: 1008
Flags: W
HStem: -67.5 21.8516<141.454 462.76> 127.423 25.6855<645.999 764.477> 443.551 25.6855<645.999 764.477> 645.648 21.8516<207.335 532.839>
VStem: 534.333 25.6855<239.091 357.569> 850.459 25.6855<239.091 357.569>
LayerCount: 2
Fore
SplineSet
705.23828125 469.236328125 m 0
 799.563476562 469.236328125 876.143554688 392.65625 876.14453125 298.330078125 c 0
 876.14453125 204.004882812 799.563476562 127.423828125 705.23828125 127.422851562 c 0
 610.913085938 127.424804688 534.333007812 204.004882812 534.333007812 298.330078125 c 0
 534.333984375 392.655273438 610.913085938 469.235351562 705.23828125 469.236328125 c 0
705.23828125 443.55078125 m 0
 625.088867188 443.549804688 560.018554688 378.479492188 560.018554688 298.330078125 c 0
 560.018554688 218.181640625 625.088867188 153.109375 705.23828125 153.108398438 c 0
 785.387695312 153.108398438 850.458984375 218.180664062 850.458984375 298.330078125 c 0
 850.458007812 378.479492188 785.387695312 443.55078125 705.23828125 443.55078125 c 0
132 667.5 m 1
 181.145507812 667.5 l 1
 197.201171875 667.5 l 1
 532.838867188 667.5 l 1
 532.838867188 645.6484375 l 1
 207.334960938 645.6484375 l 1
 538.094726562 -67.5 l 1
 493.1484375 -67.5 l 1
 472.893554688 -67.5 l 1
 141.454101562 -67.5 l 1
 141.454101562 -45.6484375 l 1
 462.759765625 -45.6484375 l 1
 132 667.5 l 1
EndSplineSet
Validated: 524289
EndChar

StartChar: uni305F
Encoding: 12383 12383 14
Width: 984
Flags: W
HStem: -67.5 27.9648<523.438 822.854> 254.557 88.9111<327.787 533.271>
VStem: 132 90.8867<-67.5 667.5> 822.854 30.0615<-39.5352 540.58>
LayerCount: 2
Fore
SplineSet
852.915039062 663.4609375 m 1
 852.915039062 -67.5 l 1
 475.645507812 -67.5 l 1
 852.915039062 663.4609375 l 1
822.853515625 540.580078125 m 1
 523.4375 -39.53515625 l 1
 822.853515625 -39.53515625 l 1
 822.853515625 540.580078125 l 1
132 -67.5 m 1
 132 667.5 l 1
 222.88671875 667.5 l 1
 222.88671875 -67.5 l 1
 132 -67.5 l 1
327.787109375 254.556640625 m 1
 327.787109375 343.467773438 l 1
 533.271484375 343.467773438 l 1
 533.271484375 254.556640625 l 1
 327.787109375 254.556640625 l 1
EndSplineSet
Validated: 524289
EndChar

StartChar: uni3061
Encoding: 12385 12385 15
Width: 931
Flags: W
HStem: 254.557 88.9111<327.787 533.271> 434.355 22.7197<640.456 727.068> 642.802 22.7217<640.456 727.068>
VStem: 132 90.8867<-67.5 667.5> 568.179 22.7207<506.632 593.245> 637.331 92.8633<-67.5 402.742> 776.625 22.7217<506.632 593.245>
LayerCount: 2
Fore
SplineSet
637.331054688 -67.5 m 1
 637.331054688 402.7421875 l 1
 730.194335938 402.7421875 l 1
 730.194335938 -67.5 l 1
 637.331054688 -67.5 l 1
683.76171875 665.5234375 m 0
 747.5546875 665.5234375 799.346679688 613.731445312 799.346679688 549.938476562 c 0
 799.346679688 486.146484375 747.5546875 434.35546875 683.76171875 434.35546875 c 0
 619.969726562 434.35546875 568.1796875 486.146484375 568.178710938 549.938476562 c 0
 568.178710938 613.731445312 619.969726562 665.522460938 683.76171875 665.5234375 c 0
683.76171875 642.801757812 m 0
 632.509765625 642.801757812 590.899414062 601.19140625 590.899414062 549.938476562 c 0
 590.899414062 498.686523438 632.509765625 457.075195312 683.76171875 457.075195312 c 0
 735.014648438 457.075195312 776.625 498.686523438 776.625 549.938476562 c 0
 776.625 601.19140625 735.014648438 642.801757812 683.76171875 642.801757812 c 0
132 -67.5 m 1
 132 667.5 l 1
 222.88671875 667.5 l 1
 222.88671875 -67.5 l 1
 132 -67.5 l 1
327.787109375 254.556640625 m 1
 327.787109375 343.467773438 l 1
 533.271484375 343.467773438 l 1
 533.271484375 254.556640625 l 1
 327.787109375 254.556640625 l 1
EndSplineSet
Validated: 524289
EndChar

StartChar: uni3064
Encoding: 12388 12388 16
Width: 1096
Flags: W
HStem: 78.9521 27.6445<654.212 944.008> 254.557 88.9111<327.787 533.271> 535.572 27.6445<654.212 944.008>
VStem: 132 90.8867<-67.5 667.5> 634.193 20.0186<106.597 535.572> 944.008 20.0186<106.597 535.572>
LayerCount: 2
Fore
SplineSet
132 -67.5 m 1
 132 667.5 l 1
 222.88671875 667.5 l 1
 222.88671875 -67.5 l 1
 132 -67.5 l 1
327.787109375 254.556640625 m 1
 327.787109375 343.467773438 l 1
 533.271484375 343.467773438 l 1
 533.271484375 254.556640625 l 1
 327.787109375 254.556640625 l 1
634.193359375 563.216796875 m 1
 964.026367188 563.216796875 l 1
 964.026367188 78.9521484375 l 1
 634.193359375 78.9521484375 l 1
 634.193359375 563.216796875 l 1
654.211914062 535.572265625 m 1
 654.211914062 106.596679688 l 1
 944.0078125 106.596679688 l 1
 944.0078125 535.572265625 l 1
 654.211914062 535.572265625 l 1
EndSplineSet
Validated: 524289
EndChar

StartChar: uni3066
Encoding: 12390 12390 17
Width: 980
Flags: W
HStem: 254.557 88.9111<327.787 533.271> 639.535 27.9648<518.99 818.404>
VStem: 132 90.8867<-67.5 667.5> 818.404 30.0605<59.4199 639.535>
LayerCount: 2
Fore
SplineSet
132 -67.5 m 1
 132 667.5 l 1
 222.88671875 667.5 l 1
 222.88671875 -67.5 l 1
 132 -67.5 l 1
327.787109375 254.556640625 m 1
 327.787109375 343.467773438 l 1
 533.271484375 343.467773438 l 1
 533.271484375 254.556640625 l 1
 327.787109375 254.556640625 l 1
848.46484375 -63.4609375 m 1
 471.198242188 667.5 l 1
 848.46484375 667.5 l 1
 848.46484375 -63.4609375 l 1
818.404296875 59.419921875 m 1
 818.404296875 639.53515625 l 1
 518.990234375 639.53515625 l 1
 818.404296875 59.419921875 l 1
EndSplineSet
Validated: 524289
EndChar

StartChar: uni3068
Encoding: 12392 12392 18
Width: 1123
Flags: W
HStem: 127.423 25.6855<761.357 879.835> 254.557 88.9111<327.787 533.271> 443.551 25.6855<761.357 879.835>
VStem: 132 90.8867<-67.5 667.5> 649.691 25.6846<239.091 357.569> 965.816 25.6855<239.091 357.569>
LayerCount: 2
Fore
SplineSet
132 -67.5 m 1
 132 667.5 l 1
 222.88671875 667.5 l 1
 222.88671875 -67.5 l 1
 132 -67.5 l 1
327.787109375 254.556640625 m 1
 327.787109375 343.467773438 l 1
 533.271484375 343.467773438 l 1
 533.271484375 254.556640625 l 1
 327.787109375 254.556640625 l 1
820.595703125 469.236328125 m 0
 914.920898438 469.236328125 991.500976562 392.65625 991.501953125 298.330078125 c 0
 991.501953125 204.004882812 914.920898438 127.423828125 820.595703125 127.422851562 c 0
 726.270507812 127.424804688 649.69140625 204.005859375 649.69140625 298.330078125 c 0
 649.692382812 392.655273438 726.271484375 469.234375 820.595703125 469.236328125 c 0
820.595703125 443.55078125 m 0
 740.446289062 443.549804688 675.375976562 378.479492188 675.375976562 298.330078125 c 0
 675.375976562 218.181640625 740.446289062 153.109375 820.595703125 153.108398438 c 0
 900.745117188 153.108398438 965.81640625 218.180664062 965.81640625 298.330078125 c 0
 965.815429688 378.479492188 900.744140625 443.55078125 820.595703125 443.55078125 c 0
EndSplineSet
Validated: 524289
EndChar

StartChar: uni306A
Encoding: 12394 12394 19
Width: 1139
Flags: W
HStem: -67.5 27.9648<677.955 977.37>
VStem: 132 100.767<-67.5 624.605> 977.37 30.0605<-39.5352 540.58>
LayerCount: 2
Fore
SplineSet
1007.43066406 663.4609375 m 1
 1007.43066406 -67.5 l 1
 630.162109375 -67.5 l 1
 1007.43066406 663.4609375 l 1
977.370117188 540.580078125 m 1
 677.955078125 -39.53515625 l 1
 977.370117188 -39.53515625 l 1
 977.370117188 540.580078125 l 1
132 -67.5 m 1
 132 667.5 l 1
 212.763671875 667.5 l 1
 232.766601562 667.5 l 1
 283.893554688 667.5 l 1
 626.62890625 -67.5 l 1
 555.5 -67.5 l 1
 232.766601562 624.60546875 l 1
 232.766601562 -67.5 l 1
 132 -67.5 l 1
EndSplineSet
Validated: 524289
EndChar

StartChar: uni306B
Encoding: 12395 12395 20
Width: 984
Flags: W
HStem: 434.355 22.7197<693.373 779.985> 642.802 22.7217<693.373 779.985>
VStem: 132 100.767<-67.5 624.605> 621.096 22.7207<506.632 593.245> 690.248 92.8633<-67.5 402.742> 829.542 22.7217<506.632 593.245>
LayerCount: 2
Fore
SplineSet
132 -67.5 m 1
 132 667.5 l 1
 212.763671875 667.5 l 1
 232.766601562 667.5 l 1
 283.893554688 667.5 l 1
 626.62890625 -67.5 l 1
 555.5 -67.5 l 1
 232.766601562 624.60546875 l 1
 232.766601562 -67.5 l 1
 132 -67.5 l 1
690.248046875 -67.5 m 1
 690.248046875 402.7421875 l 1
 783.111328125 402.7421875 l 1
 783.111328125 -67.5 l 1
 690.248046875 -67.5 l 1
736.678710938 665.5234375 m 0
 800.471679688 665.5234375 852.263671875 613.731445312 852.263671875 549.938476562 c 0
 852.262695312 486.146484375 800.471679688 434.35546875 736.678710938 434.35546875 c 0
 672.88671875 434.35546875 621.096679688 486.146484375 621.095703125 549.938476562 c 0
 621.095703125 613.731445312 672.88671875 665.522460938 736.678710938 665.5234375 c 0
736.678710938 642.801757812 m 0
 685.426757812 642.801757812 643.81640625 601.19140625 643.81640625 549.938476562 c 0
 643.81640625 498.686523438 685.426757812 457.075195312 736.678710938 457.075195312 c 0
 787.931640625 457.075195312 829.541992188 498.686523438 829.541992188 549.938476562 c 0
 829.541992188 601.19140625 787.931640625 642.801757812 736.678710938 642.801757812 c 0
EndSplineSet
Validated: 524289
EndChar

StartChar: uni306C
Encoding: 12396 12396 21
Width: 1097
Flags: W
HStem: 56.1973 27.6445<656.003 945.801> 512.817 27.6445<656.003 945.801>
VStem: 132 100.767<-67.5 624.605> 635.983 20.0195<83.8418 512.817> 945.801 20.0176<83.8418 512.817>
LayerCount: 2
Fore
SplineSet
635.983398438 540.461914062 m 1
 965.818359375 540.461914062 l 1
 965.818359375 56.197265625 l 1
 635.983398438 56.197265625 l 1
 635.983398438 540.461914062 l 1
656.002929688 512.817382812 m 1
 656.002929688 83.841796875 l 1
 945.80078125 83.841796875 l 1
 945.80078125 512.817382812 l 1
 656.002929688 512.817382812 l 1
132 -67.5 m 1
 132 667.5 l 1
 212.763671875 667.5 l 1
 232.766601562 667.5 l 1
 283.893554688 667.5 l 1
 626.62890625 -67.5 l 1
 555.5 -67.5 l 1
 232.766601562 624.60546875 l 1
 232.766601562 -67.5 l 1
 132 -67.5 l 1
EndSplineSet
Validated: 524289
EndChar

StartChar: uni306D
Encoding: 12397 12397 22
Width: 959
Flags: W
HStem: 639.535 27.9648<498.517 797.931>
VStem: 132 100.767<-67.5 624.605> 797.931 30.0605<59.4199 639.535>
LayerCount: 2
Fore
SplineSet
827.991210938 -63.4609375 m 1
 450.724609375 667.5 l 1
 827.991210938 667.5 l 1
 827.991210938 -63.4609375 l 1
797.930664062 59.419921875 m 1
 797.930664062 639.53515625 l 1
 498.516601562 639.53515625 l 1
 797.930664062 59.419921875 l 1
132 -67.5 m 1
 132 667.5 l 1
 212.763671875 667.5 l 1
 232.766601562 667.5 l 1
 283.893554688 667.5 l 1
 626.62890625 -67.5 l 1
 555.5 -67.5 l 1
 232.766601562 624.60546875 l 1
 232.766601562 -67.5 l 1
 132 -67.5 l 1
EndSplineSet
Validated: 524289
EndChar

StartChar: uni306E
Encoding: 12398 12398 23
Width: 1062
Flags: W
HStem: 127.423 25.6855<700.025 818.503> 443.551 25.6855<700.025 818.503>
VStem: 132 100.767<-67.5 624.605> 588.358 25.6855<239.091 357.569> 904.486 25.6846<239.091 357.57>
LayerCount: 2
Fore
SplineSet
759.263671875 469.236328125 m 0
 853.58984375 469.236328125 930.170898438 392.65625 930.170898438 298.330078125 c 0
 930.170898438 204.00390625 853.58984375 127.422851562 759.263671875 127.422851562 c 0
 664.938476562 127.423828125 588.358398438 204.004882812 588.358398438 298.330078125 c 0
 588.359375 392.655273438 664.938476562 469.235351562 759.263671875 469.236328125 c 0
759.263671875 443.55078125 m 0
 679.115234375 443.55078125 614.043945312 378.479492188 614.043945312 298.330078125 c 0
 614.043945312 218.180664062 679.114257812 153.109375 759.263671875 153.108398438 c 0
 839.4140625 153.108398438 904.486328125 218.180664062 904.486328125 298.330078125 c 0
 904.485351562 378.48046875 839.4140625 443.55078125 759.263671875 443.55078125 c 0
132 -67.5 m 1
 132 667.5 l 1
 212.763671875 667.5 l 1
 232.766601562 667.5 l 1
 283.893554688 667.5 l 1
 626.62890625 -67.5 l 1
 555.5 -67.5 l 1
 232.766601562 624.60546875 l 1
 232.766601562 -67.5 l 1
 132 -67.5 l 1
EndSplineSet
Validated: 524289
EndChar

StartChar: uni306F
Encoding: 12399 12399 24
Width: 1120
Flags: W
HStem: -67.5 21.7334<222.888 606.292 659.434 958.85>
VStem: 132 90.8877<-45.7666 667.5> 958.85 30.0615<-39.5352 540.58>
LayerCount: 2
Fore
SplineSet
988.911132812 663.4609375 m 1
 988.911132812 -67.5 l 1
 611.641601562 -67.5 l 1
 988.911132812 663.4609375 l 1
958.849609375 540.580078125 m 1
 659.43359375 -39.53515625 l 1
 958.849609375 -39.53515625 l 1
 958.849609375 540.580078125 l 1
132 667.5 m 1
 222.887695312 667.5 l 1
 222.887695312 -45.7666015625 l 1
 606.291992188 -45.7666015625 l 1
 606.291992188 -67.5 l 1
 222.887695312 -67.5 l 1
 170.586914062 -67.5 l 1
 132 -67.5 l 1
 132 667.5 l 1
EndSplineSet
Validated: 524289
EndChar

StartChar: uni3072
Encoding: 12402 12402 25
Width: 1044
Flags: W
HStem: -67.5 21.7334<222.888 606.292> 434.355 22.7197<753.698 840.311> 642.802 22.7217<753.698 840.311>
VStem: 132 90.8877<-45.7666 667.5> 681.421 22.7207<506.632 593.245> 750.573 92.8633<-67.5 402.742> 889.867 22.7217<506.632 593.245>
LayerCount: 2
Fore
SplineSet
750.573242188 -67.5 m 1
 750.573242188 402.7421875 l 1
 843.436523438 402.7421875 l 1
 843.436523438 -67.5 l 1
 750.573242188 -67.5 l 1
797.00390625 665.5234375 m 0
 860.796875 665.5234375 912.588867188 613.731445312 912.588867188 549.938476562 c 0
 912.587890625 486.146484375 860.796875 434.35546875 797.00390625 434.35546875 c 0
 733.211914062 434.35546875 681.421875 486.146484375 681.420898438 549.938476562 c 0
 681.420898438 613.731445312 733.211914062 665.522460938 797.00390625 665.5234375 c 0
797.00390625 642.801757812 m 0
 745.751953125 642.801757812 704.141601562 601.19140625 704.141601562 549.938476562 c 0
 704.141601562 498.686523438 745.751953125 457.075195312 797.00390625 457.075195312 c 0
 848.256835938 457.075195312 889.8671875 498.686523438 889.8671875 549.938476562 c 0
 889.8671875 601.19140625 848.256835938 642.801757812 797.00390625 642.801757812 c 0
132 667.5 m 1
 222.887695312 667.5 l 1
 222.887695312 -45.7666015625 l 1
 606.291992188 -45.7666015625 l 1
 606.291992188 -67.5 l 1
 222.887695312 -67.5 l 1
 170.586914062 -67.5 l 1
 132 -67.5 l 1
 132 667.5 l 1
EndSplineSet
Validated: 524289
EndChar

StartChar: uni3075
Encoding: 12405 12405 26
Width: 909
Flags: W
HStem: -67.5 21.7334<222.888 606.292> 183.235 27.6445<467.787 757.584> 639.855 27.6445<467.787 757.584>
VStem: 132 90.8877<-45.7666 667.5> 447.768 20.0195<210.88 639.855> 757.584 20.0186<210.88 639.855>
LayerCount: 2
Fore
SplineSet
447.767578125 667.5 m 1
 777.602539062 667.5 l 1
 777.602539062 183.235351562 l 1
 447.767578125 183.235351562 l 1
 447.767578125 667.5 l 1
467.787109375 639.85546875 m 1
 467.787109375 210.879882812 l 1
 757.583984375 210.879882812 l 1
 757.583984375 639.85546875 l 1
 467.787109375 639.85546875 l 1
132 667.5 m 1
 222.887695312 667.5 l 1
 222.887695312 -45.7666015625 l 1
 606.291992188 -45.7666015625 l 1
 606.291992188 -67.5 l 1
 222.887695312 -67.5 l 1
 170.586914062 -67.5 l 1
 132 -67.5 l 1
 132 667.5 l 1
EndSplineSet
Validated: 524289
EndChar

StartChar: uni3078
Encoding: 12408 12408 27
Width: 943
Flags: W
HStem: -67.5 21.7334<222.888 606.292> 639.535 27.9648<482.478 781.892>
VStem: 132 90.8877<-45.7666 667.5> 781.892 30.0605<59.4199 639.535>
LayerCount: 2
Fore
SplineSet
811.952148438 -63.4609375 m 1
 434.685546875 667.5 l 1
 811.952148438 667.5 l 1
 811.952148438 -63.4609375 l 1
781.891601562 59.419921875 m 1
 781.891601562 639.53515625 l 1
 482.477539062 639.53515625 l 1
 781.891601562 59.419921875 l 1
132 667.5 m 1
 222.887695312 667.5 l 1
 222.887695312 -45.7666015625 l 1
 606.291992188 -45.7666015625 l 1
 606.291992188 -67.5 l 1
 222.887695312 -67.5 l 1
 170.586914062 -67.5 l 1
 132 -67.5 l 1
 132 667.5 l 1
EndSplineSet
Validated: 524289
EndChar

StartChar: uni307B
Encoding: 12411 12411 28
Width: 957
Flags: W
HStem: -67.5 21.7334<222.888 606.292> 127.423 25.6855<595.25 713.729> 443.551 25.6855<595.25 713.728>
VStem: 132 90.8877<-45.7666 667.5> 483.583 25.6855<239.091 357.569> 799.711 25.6855<239.091 357.57>
LayerCount: 2
Fore
SplineSet
654.489257812 469.236328125 m 0
 748.814453125 469.236328125 825.395507812 392.65625 825.396484375 298.330078125 c 0
 825.396484375 204.00390625 748.815429688 127.422851562 654.489257812 127.422851562 c 0
 560.163085938 127.423828125 483.583007812 204.004882812 483.583007812 298.330078125 c 0
 483.583984375 392.655273438 560.1640625 469.235351562 654.489257812 469.236328125 c 0
654.489257812 443.55078125 m 0
 574.33984375 443.55078125 509.26953125 378.479492188 509.268554688 298.330078125 c 0
 509.268554688 218.180664062 574.33984375 153.109375 654.489257812 153.108398438 c 0
 734.638671875 153.108398438 799.7109375 218.180664062 799.7109375 298.330078125 c 0
 799.709960938 378.48046875 734.638671875 443.55078125 654.489257812 443.55078125 c 0
132 667.5 m 1
 222.887695312 667.5 l 1
 222.887695312 -45.7666015625 l 1
 606.291992188 -45.7666015625 l 1
 606.291992188 -67.5 l 1
 222.887695312 -67.5 l 1
 170.586914062 -67.5 l 1
 132 -67.5 l 1
 132 667.5 l 1
EndSplineSet
Validated: 524289
EndChar

StartChar: uni307E
Encoding: 12414 12414 29
Width: 1106
Flags: W
HStem: -67.5 27.9648<644.604 944.019>
VStem: 132 90.8867<-67.5 667.5> 392.666 90.8867<-67.5 667.5> 944.019 30.0605<-39.5352 540.58>
LayerCount: 2
Fore
SplineSet
974.079101562 663.4609375 m 1
 974.079101562 -67.5 l 1
 596.8125 -67.5 l 1
 974.079101562 663.4609375 l 1
944.018554688 540.580078125 m 1
 644.604492188 -39.53515625 l 1
 944.018554688 -39.53515625 l 1
 944.018554688 540.580078125 l 1
132 -67.5 m 1
 132 667.5 l 1
 222.88671875 667.5 l 1
 222.88671875 -67.5 l 1
 132 -67.5 l 1
392.666015625 -67.5 m 1
 392.666015625 667.5 l 1
 483.552734375 667.5 l 1
 483.552734375 -67.5 l 1
 392.666015625 -67.5 l 1
EndSplineSet
Validated: 524289
EndChar

StartChar: uni307F
Encoding: 12415 12415 30
Width: 1044
Flags: W
HStem: 434.355 22.7197<753.684 840.297> 642.802 22.7217<753.684 840.297>
VStem: 132 90.8867<-67.5 667.5> 392.666 90.8867<-67.5 667.5> 681.407 22.7207<506.632 593.245> 750.56 92.8633<-67.5 402.742> 889.854 22.7217<506.632 593.245>
LayerCount: 2
Fore
SplineSet
750.559570312 -67.5 m 1
 750.559570312 402.7421875 l 1
 843.422851562 402.7421875 l 1
 843.422851562 -67.5 l 1
 750.559570312 -67.5 l 1
796.990234375 665.5234375 m 0
 860.783203125 665.5234375 912.575195312 613.731445312 912.575195312 549.938476562 c 0
 912.57421875 486.146484375 860.783203125 434.35546875 796.990234375 434.35546875 c 0
 733.198242188 434.35546875 681.408203125 486.146484375 681.407226562 549.938476562 c 0
 681.407226562 613.731445312 733.198242188 665.522460938 796.990234375 665.5234375 c 0
796.990234375 642.801757812 m 0
 745.73828125 642.801757812 704.127929688 601.19140625 704.127929688 549.938476562 c 0
 704.127929688 498.686523438 745.73828125 457.075195312 796.990234375 457.075195312 c 0
 848.243164062 457.075195312 889.853515625 498.686523438 889.853515625 549.938476562 c 0
 889.853515625 601.19140625 848.243164062 642.801757812 796.990234375 642.801757812 c 0
132 -67.5 m 1
 132 667.5 l 1
 222.88671875 667.5 l 1
 222.88671875 -67.5 l 1
 132 -67.5 l 1
392.666015625 -67.5 m 1
 392.666015625 667.5 l 1
 483.552734375 667.5 l 1
 483.552734375 -67.5 l 1
 392.666015625 -67.5 l 1
EndSplineSet
Validated: 524289
EndChar

StartChar: uni3080
Encoding: 12416 12416 31
Width: 1092
Flags: W
HStem: 183.235 27.6445<651.034 940.832> 639.855 27.6445<651.034 940.832>
VStem: 132 90.8867<-67.5 667.5> 392.666 90.8867<-67.5 667.5> 631.015 20.0195<210.88 639.855> 940.832 20.0186<210.88 639.855>
LayerCount: 2
Fore
SplineSet
132 -67.5 m 1
 132 667.5 l 1
 222.88671875 667.5 l 1
 222.88671875 -67.5 l 1
 132 -67.5 l 1
392.666015625 -67.5 m 1
 392.666015625 667.5 l 1
 483.552734375 667.5 l 1
 483.552734375 -67.5 l 1
 392.666015625 -67.5 l 1
631.014648438 667.5 m 1
 960.850585938 667.5 l 1
 960.850585938 183.235351562 l 1
 631.014648438 183.235351562 l 1
 631.014648438 667.5 l 1
651.034179688 639.85546875 m 1
 651.034179688 210.879882812 l 1
 940.83203125 210.879882812 l 1
 940.83203125 639.85546875 l 1
 651.034179688 639.85546875 l 1
EndSplineSet
Validated: 524289
EndChar

StartChar: uni3081
Encoding: 12417 12417 32
Width: 1106
Flags: W
HStem: 639.535 27.9648<644.603 944.019>
VStem: 132 90.8867<-67.5 667.5> 392.666 90.8867<-67.5 667.5> 944.019 30.0605<59.4199 639.535>
LayerCount: 2
Fore
SplineSet
974.079101562 -63.4609375 m 1
 596.810546875 667.5 l 1
 974.079101562 667.5 l 1
 974.079101562 -63.4609375 l 1
944.018554688 59.419921875 m 1
 944.018554688 639.53515625 l 1
 644.602539062 639.53515625 l 1
 944.018554688 59.419921875 l 1
132 -67.5 m 1
 132 667.5 l 1
 222.88671875 667.5 l 1
 222.88671875 -67.5 l 1
 132 -67.5 l 1
392.666015625 -67.5 m 1
 392.666015625 667.5 l 1
 483.552734375 667.5 l 1
 483.552734375 -67.5 l 1
 392.666015625 -67.5 l 1
EndSplineSet
Validated: 524289
EndChar

StartChar: uni3082
Encoding: 12418 12418 33
Width: 1098
Flags: W
HStem: 127.423 25.6855<736.537 855.016> 443.551 25.6855<736.538 855.016>
VStem: 132 90.8867<-67.5 667.5> 392.666 90.8867<-67.5 667.5> 624.871 25.6855<239.091 357.569> 940.999 25.6855<239.091 357.57>
LayerCount: 2
Fore
SplineSet
132 -67.5 m 1
 132 667.5 l 1
 222.88671875 667.5 l 1
 222.88671875 -67.5 l 1
 132 -67.5 l 1
392.666015625 -67.5 m 1
 392.666015625 667.5 l 1
 483.552734375 667.5 l 1
 483.552734375 -67.5 l 1
 392.666015625 -67.5 l 1
795.776367188 469.236328125 m 0
 890.102539062 469.236328125 966.68359375 392.65625 966.684570312 298.330078125 c 0
 966.684570312 204.00390625 890.102539062 127.422851562 795.776367188 127.422851562 c 0
 701.451171875 127.423828125 624.87109375 204.004882812 624.87109375 298.330078125 c 0
 624.872070312 392.655273438 701.451171875 469.235351562 795.776367188 469.236328125 c 0
795.776367188 443.55078125 m 0
 715.627929688 443.55078125 650.556640625 378.479492188 650.556640625 298.330078125 c 0
 650.556640625 218.180664062 715.626953125 153.109375 795.776367188 153.108398438 c 0
 875.926757812 153.108398438 940.999023438 218.180664062 940.999023438 298.330078125 c 0
 940.998046875 378.48046875 875.926757812 443.55078125 795.776367188 443.55078125 c 0
EndSplineSet
Validated: 524289
EndChar

StartChar: uni3084
Encoding: 12420 12420 34
Width: 1148
Flags: W
HStem: -67.5 27.9648<687.467 986.882> 645.767 21.7334<132 515.404>
VStem: 515.404 90.8877<-67.5 645.767> 986.882 30.0615<-39.5352 540.58>
LayerCount: 2
Fore
SplineSet
1016.94335938 663.4609375 m 1
 1016.94335938 -67.5 l 1
 639.673828125 -67.5 l 1
 1016.94335938 663.4609375 l 1
986.881835938 540.580078125 m 1
 687.466796875 -39.53515625 l 1
 986.881835938 -39.53515625 l 1
 986.881835938 540.580078125 l 1
606.291992188 -67.5 m 1
 515.404296875 -67.5 l 1
 515.404296875 645.766601562 l 1
 132 645.766601562 l 1
 132 667.5 l 1
 515.404296875 667.5 l 1
 567.705078125 667.5 l 1
 606.291992188 667.5 l 1
 606.291992188 -67.5 l 1
EndSplineSet
Validated: 524289
EndChar

StartChar: uni3086
Encoding: 12422 12422 35
Width: 1206
Flags: W
HStem: 56.1973 27.6445<764.266 1054.06> 512.817 27.6445<764.266 1054.06> 645.767 21.7334<132 515.404>
VStem: 515.404 90.8877<-67.5 645.767> 744.246 20.0195<83.8418 512.817> 1054.06 20.0186<83.8418 512.817>
LayerCount: 2
Fore
SplineSet
744.24609375 540.461914062 m 1
 1074.08007812 540.461914062 l 1
 1074.08007812 56.197265625 l 1
 744.24609375 56.197265625 l 1
 744.24609375 540.461914062 l 1
764.265625 512.817382812 m 1
 764.265625 83.841796875 l 1
 1054.06152344 83.841796875 l 1
 1054.06152344 512.817382812 l 1
 764.265625 512.817382812 l 1
606.291992188 -67.5 m 1
 515.404296875 -67.5 l 1
 515.404296875 645.766601562 l 1
 132 645.766601562 l 1
 132 667.5 l 1
 515.404296875 667.5 l 1
 567.705078125 667.5 l 1
 606.291992188 667.5 l 1
 606.291992188 -67.5 l 1
EndSplineSet
Validated: 524289
EndChar

StartChar: uni3088
Encoding: 12424 12424 36
Width: 1185
Flags: W
HStem: 131.128 25.6846<823.196 941.673> 447.255 25.6855<823.196 941.673> 645.767 21.7334<132 515.404>
VStem: 515.404 90.8877<-67.5 645.767> 711.529 25.6855<242.796 361.274> 1027.65 25.6855<242.796 361.274>
LayerCount: 2
Fore
SplineSet
882.434570312 472.940429688 m 0
 976.758789062 472.939453125 1053.33789062 396.359375 1053.33886719 302.03515625 c 0
 1053.33886719 207.708984375 976.759765625 131.12890625 882.434570312 131.127929688 c 0
 788.109375 131.12890625 711.529296875 207.708984375 711.529296875 302.03515625 c 0
 711.530273438 396.359375 788.109375 472.939453125 882.434570312 472.940429688 c 0
882.434570312 447.254882812 m 0
 802.286132812 447.25390625 737.215820312 382.18359375 737.21484375 302.03515625 c 0
 737.21484375 221.885742188 802.28515625 156.814453125 882.434570312 156.8125 c 0
 962.583007812 156.814453125 1027.65332031 221.885742188 1027.65332031 302.03515625 c 0
 1027.65332031 382.18359375 962.583007812 447.25390625 882.434570312 447.254882812 c 0
606.291992188 -67.5 m 1
 515.404296875 -67.5 l 1
 515.404296875 645.766601562 l 1
 132 645.766601562 l 1
 132 667.5 l 1
 515.404296875 667.5 l 1
 567.705078125 667.5 l 1
 606.291992188 667.5 l 1
 606.291992188 -67.5 l 1
EndSplineSet
Validated: 524289
EndChar

StartChar: uni3089
Encoding: 12425 12425 37
Width: 943
Flags: W
HStem: -67.5 27.9648<482.476 781.891> 645.767 21.7334<222.888 606.292>
VStem: 132 90.8877<-67.5 645.767> 781.891 30.0615<-39.5352 540.58>
LayerCount: 2
Fore
SplineSet
811.952148438 663.4609375 m 1
 811.952148438 -67.5 l 1
 434.682617188 -67.5 l 1
 811.952148438 663.4609375 l 1
781.890625 540.580078125 m 1
 482.475585938 -39.53515625 l 1
 781.890625 -39.53515625 l 1
 781.890625 540.580078125 l 1
132 -67.5 m 1
 132 667.5 l 1
 170.586914062 667.5 l 1
 222.887695312 667.5 l 1
 606.291992188 667.5 l 1
 606.291992188 645.766601562 l 1
 222.887695312 645.766601562 l 1
 222.887695312 -67.5 l 1
 132 -67.5 l 1
EndSplineSet
Validated: 524289
EndChar

StartChar: uni308A
Encoding: 12426 12426 38
Width: 1026
Flags: W
HStem: 434.355 22.7197<735.137 821.75> 645.767 21.7334<222.888 606.292 741.85 815.037>
VStem: 132 90.8877<-67.5 645.767> 662.86 22.7207<506.632 593.245> 732.013 92.8623<-67.5 402.742> 871.307 22.7217<506.632 593.245>
LayerCount: 2
Fore
SplineSet
732.012695312 -67.5 m 1
 732.012695312 402.7421875 l 1
 824.875 402.7421875 l 1
 824.875 -67.5 l 1
 732.012695312 -67.5 l 1
778.443359375 665.5234375 m 0
 842.236328125 665.5234375 894.028320312 613.731445312 894.028320312 549.938476562 c 0
 894.02734375 486.146484375 842.236328125 434.35546875 778.443359375 434.35546875 c 0
 714.651367188 434.35546875 662.860351562 486.146484375 662.860351562 549.938476562 c 0
 662.860351562 613.731445312 714.651367188 665.522460938 778.443359375 665.5234375 c 0
778.443359375 642.801757812 m 0
 727.19140625 642.801757812 685.581054688 601.19140625 685.581054688 549.938476562 c 0
 685.581054688 498.686523438 727.19140625 457.075195312 778.443359375 457.075195312 c 0
 829.696289062 457.075195312 871.306640625 498.686523438 871.306640625 549.938476562 c 0
 871.306640625 601.19140625 829.696289062 642.801757812 778.443359375 642.801757812 c 0
132 -67.5 m 1
 132 667.5 l 1
 170.586914062 667.5 l 1
 222.887695312 667.5 l 1
 606.291992188 667.5 l 1
 606.291992188 645.766601562 l 1
 222.887695312 645.766601562 l 1
 222.887695312 -67.5 l 1
 132 -67.5 l 1
EndSplineSet
Validated: 524289
EndChar

StartChar: uni308B
Encoding: 12427 12427 39
Width: 894
Flags: W
HStem: -67.5 27.6445<453.089 742.885> 389.12 27.6445<453.089 742.885> 645.767 21.7334<222.888 606.292>
VStem: 132 90.8877<-67.5 645.767> 433.07 20.0186<-39.8555 389.12> 742.885 20.0186<-39.8555 389.12>
LayerCount: 2
Fore
SplineSet
433.0703125 416.764648438 m 1
 762.903320312 416.764648438 l 1
 762.903320312 -67.5 l 1
 433.0703125 -67.5 l 1
 433.0703125 416.764648438 l 1
453.088867188 389.120117188 m 1
 453.088867188 -39.85546875 l 1
 742.884765625 -39.85546875 l 1
 742.884765625 389.120117188 l 1
 453.088867188 389.120117188 l 1
132 -67.5 m 1
 132 667.5 l 1
 170.586914062 667.5 l 1
 222.887695312 667.5 l 1
 606.291992188 667.5 l 1
 606.291992188 645.766601562 l 1
 222.887695312 645.766601562 l 1
 222.887695312 -67.5 l 1
 132 -67.5 l 1
EndSplineSet
Validated: 524289
EndChar

StartChar: uni308C
Encoding: 12428 12428 40
Width: 1120
Flags: W
HStem: 645.767 21.7334<222.888 606.292 659.435 958.85>
VStem: 132 90.8877<-67.5 645.767> 958.85 30.0615<59.4199 639.535>
LayerCount: 2
Fore
SplineSet
988.911132812 -63.4609375 m 1
 611.642578125 667.5 l 1
 988.911132812 667.5 l 1
 988.911132812 -63.4609375 l 1
958.849609375 59.419921875 m 1
 958.849609375 639.53515625 l 1
 659.434570312 639.53515625 l 1
 958.849609375 59.419921875 l 1
132 -67.5 m 1
 132 667.5 l 1
 170.586914062 667.5 l 1
 222.887695312 667.5 l 1
 606.291992188 667.5 l 1
 606.291992188 645.766601562 l 1
 222.887695312 645.766601562 l 1
 222.887695312 -67.5 l 1
 132 -67.5 l 1
EndSplineSet
Validated: 524289
EndChar

StartChar: uni308D
Encoding: 12429 12429 41
Width: 957
Flags: W
HStem: 130.764 25.6855<595.25 713.728> 446.892 25.6855<595.25 713.729> 645.767 21.7334<222.888 606.292>
VStem: 132 90.8877<-67.5 645.767> 483.583 25.6855<242.431 360.909> 799.711 25.6855<242.431 360.909>
LayerCount: 2
Fore
SplineSet
654.489257812 130.763671875 m 0
 560.1640625 130.764648438 483.583984375 207.344726562 483.583007812 301.669921875 c 0
 483.583007812 395.995117188 560.163085938 472.576171875 654.489257812 472.577148438 c 0
 748.815429688 472.577148438 825.396484375 395.99609375 825.396484375 301.669921875 c 0
 825.395507812 207.34375 748.814453125 130.763671875 654.489257812 130.763671875 c 0
654.489257812 156.44921875 m 0
 734.638671875 156.44921875 799.709960938 221.520507812 799.7109375 301.669921875 c 0
 799.7109375 381.819335938 734.638671875 446.891601562 654.489257812 446.891601562 c 0
 574.33984375 446.890625 509.268554688 381.819335938 509.268554688 301.669921875 c 0
 509.26953125 221.520507812 574.33984375 156.450195312 654.489257812 156.44921875 c 0
132 -67.5 m 1
 132 667.5 l 1
 170.586914062 667.5 l 1
 222.887695312 667.5 l 1
 606.291992188 667.5 l 1
 606.291992188 645.766601562 l 1
 222.887695312 645.766601562 l 1
 222.887695312 -67.5 l 1
 132 -67.5 l 1
EndSplineSet
Validated: 524289
EndChar

StartChar: uni304C
Encoding: 12364 12364 42
Width: 959
Flags: W
HStem: -67.5 27.9648<498.516 797.93> 504.919 162.581<665.41 746.164 779.524 797.93>
VStem: 132 100.767<-24.6055 667.5> 665.41 162.581<504.919 667.5> 797.93 30.0615<-39.5352 504.919>
LayerCount: 2
Fore
SplineSet
665.41015625 667.5 m 1xf0
 827.991210938 667.5 l 1
 827.991210938 663.4609375 l 1
 827.991210938 504.918945312 l 1xf0
 827.991210938 -67.5 l 1xe8
 450.724609375 -67.5 l 1
 746.1640625 504.918945312 l 1
 665.41015625 504.918945312 l 1
 665.41015625 667.5 l 1xf0
779.524414062 504.918945312 m 1
 498.515625 -39.53515625 l 1
 797.9296875 -39.53515625 l 1
 797.9296875 504.918945312 l 1xe8
 779.524414062 504.918945312 l 1
132 667.5 m 1
 232.766601562 667.5 l 1
 232.766601562 -24.60546875 l 1
 555.5 667.5 l 1
 626.62890625 667.5 l 1
 283.893554688 -67.5 l 1
 232.766601562 -67.5 l 1
 212.763671875 -67.5 l 1
 132 -67.5 l 1
 132 667.5 l 1
EndSplineSet
Validated: 524289
EndChar

StartChar: uni304E
Encoding: 12366 12366 43
Width: 1044
Flags: W
HStem: -67.5 162.581<453.76 616.341> 434.355 22.7197<753.116 839.729> 642.802 22.7217<753.116 839.729>
VStem: 132 100.767<-24.6055 667.5> 453.76 162.581<-67.5 95.0811> 680.839 22.7207<506.632 593.245> 749.991 92.8633<-67.5 402.742> 889.285 22.7217<506.632 593.245>
LayerCount: 2
Fore
SplineSet
749.991210938 -67.5 m 1
 749.991210938 402.7421875 l 1
 842.854492188 402.7421875 l 1
 842.854492188 -67.5 l 1
 749.991210938 -67.5 l 1
796.421875 665.5234375 m 0
 860.21484375 665.5234375 912.006835938 613.731445312 912.006835938 549.938476562 c 0
 912.006835938 486.146484375 860.21484375 434.35546875 796.421875 434.35546875 c 0
 732.630859375 434.35546875 680.83984375 486.146484375 680.838867188 549.938476562 c 0
 680.838867188 613.731445312 732.629882812 665.522460938 796.421875 665.5234375 c 0
796.421875 642.801757812 m 0
 745.169921875 642.801757812 703.559570312 601.19140625 703.559570312 549.938476562 c 0
 703.559570312 498.686523438 745.169921875 457.075195312 796.421875 457.075195312 c 0
 847.674804688 457.075195312 889.28515625 498.686523438 889.28515625 549.938476562 c 0
 889.28515625 601.19140625 847.674804688 642.801757812 796.421875 642.801757812 c 0
132 667.5 m 1
 232.766601562 667.5 l 1
 232.766601562 -24.60546875 l 1
 555.5 667.5 l 1
 626.62890625 667.5 l 1
 283.893554688 -67.5 l 1
 232.766601562 -67.5 l 1
 212.763671875 -67.5 l 1
 132 -67.5 l 1
 132 667.5 l 1
453.759765625 -67.5 m 1
 453.759765625 95.0810546875 l 1
 616.340820312 95.0810546875 l 1
 616.340820312 -67.5 l 1
 453.759765625 -67.5 l 1
EndSplineSet
Validated: 524289
EndChar

StartChar: uni3050
Encoding: 12368 12368 44
Width: 1100
Flags: W
HStem: 12.2764 27.6445<658.922 948.718> 333.96 162.581<806.155 948.718> 468.896 27.6445<658.922 806.155>
VStem: 132 100.767<-24.6055 667.5> 638.902 20.0195<39.9209 468.896> 806.155 162.581<333.96 468.896> 948.718 20.0186<39.9209 333.96>
LayerCount: 2
Fore
SplineSet
638.90234375 496.541015625 m 1xba
 806.155273438 496.541015625 l 1xdc
 968.736328125 496.541015625 l 1xba
 968.736328125 333.959960938 l 1xdc
 968.736328125 12.2763671875 l 1
 638.90234375 12.2763671875 l 1
 638.90234375 496.541015625 l 1xba
658.921875 468.896484375 m 1xbc
 658.921875 39.9208984375 l 1
 948.717773438 39.9208984375 l 1
 948.717773438 333.959960938 l 1xda
 806.155273438 333.959960938 l 1xdc
 806.155273438 468.896484375 l 1
 658.921875 468.896484375 l 1xbc
132 667.5 m 1
 232.766601562 667.5 l 1
 232.766601562 -24.60546875 l 1
 555.5 667.5 l 1
 626.62890625 667.5 l 1
 283.893554688 -67.5 l 1
 232.766601562 -67.5 l 1
 212.763671875 -67.5 l 1
 132 -67.5 l 1
 132 667.5 l 1
EndSplineSet
Validated: 524289
EndChar

StartChar: uni3052
Encoding: 12370 12370 45
Width: 1139
Flags: W
HStem: 504.919 162.581<845.109 977.63> 639.535 27.9648<678.217 845.109>
VStem: 132 100.767<-24.6055 667.5> 845.109 162.581<504.919 639.535> 977.63 30.0605<59.4199 504.919>
LayerCount: 2
Fore
SplineSet
630.424804688 667.5 m 1x68
 845.109375 667.5 l 1xb0
 1007.69042969 667.5 l 1x68
 1007.69042969 504.918945312 l 1xb0
 1007.69042969 -63.4609375 l 1
 630.424804688 667.5 l 1x68
678.216796875 639.53515625 m 1x70
 977.629882812 59.419921875 l 1
 977.629882812 504.918945312 l 1xa8
 845.109375 504.918945312 l 1xb0
 845.109375 639.53515625 l 1
 678.216796875 639.53515625 l 1x70
132 667.5 m 1x60
 232.766601562 667.5 l 1
 232.766601562 -24.60546875 l 1
 555.5 667.5 l 1
 626.62890625 667.5 l 1
 283.893554688 -67.5 l 1
 232.766601562 -67.5 l 1
 212.763671875 -67.5 l 1
 132 -67.5 l 1
 132 667.5 l 1x60
EndSplineSet
Validated: 524289
EndChar

StartChar: uni3054
Encoding: 12372 12372 46
Width: 1040
Flags: W
HStem: -67.5 162.581<436.031 598.612> 127.423 25.6855<678.807 797.286> 443.551 25.6855<678.807 797.285>
VStem: 132 100.767<-24.6055 667.5> 436.031 162.581<-67.5 95.0811> 567.142 25.6846<239.091 357.569> 883.268 25.6846<239.091 357.569>
LayerCount: 2
Fore
SplineSet
738.045898438 469.236328125 m 0xf6
 832.372070312 469.236328125 908.952148438 392.65625 908.952148438 298.330078125 c 0
 908.952148438 204.004882812 832.372070312 127.423828125 738.045898438 127.422851562 c 0
 643.720703125 127.424804688 567.141601562 204.004882812 567.141601562 298.330078125 c 0
 567.142578125 392.655273438 643.721679688 469.235351562 738.045898438 469.236328125 c 0xf6
738.045898438 443.55078125 m 0
 657.897460938 443.549804688 592.827148438 378.479492188 592.826171875 298.330078125 c 0
 592.826171875 218.181640625 657.897460938 153.109375 738.045898438 153.108398438 c 0
 818.196289062 153.109375 883.267578125 218.180664062 883.267578125 298.330078125 c 0
 883.266601562 378.479492188 818.1953125 443.55078125 738.045898438 443.55078125 c 0
132 667.5 m 1
 232.766601562 667.5 l 1
 232.766601562 -24.60546875 l 1
 555.5 667.5 l 1
 626.62890625 667.5 l 1
 283.893554688 -67.5 l 1
 232.766601562 -67.5 l 1
 212.763671875 -67.5 l 1
 132 -67.5 l 1
 132 667.5 l 1
436.03125 -67.5 m 1xfa
 436.03125 95.0810546875 l 1
 598.612304688 95.0810546875 l 1
 598.612304688 -67.5 l 1
 436.03125 -67.5 l 1xfa
EndSplineSet
Validated: 524289
EndChar

StartChar: uni3056
Encoding: 12374 12374 47
Width: 1054
Flags: W
HStem: -67.5 21.8516<141.454 462.76 592.708 892.122> 500.879 162.582<759.603 838.271 871.632 892.122> 645.648 21.8516<207.335 532.839>
VStem: 759.603 162.581<500.879 663.461> 892.122 30.0615<-39.5352 500.879>
LayerCount: 2
Fore
SplineSet
759.602539062 663.4609375 m 1xd0
 922.18359375 663.4609375 l 1
 922.18359375 500.87890625 l 1xd0
 922.18359375 -67.5 l 1xc8
 544.916015625 -67.5 l 1
 838.271484375 500.87890625 l 1
 759.602539062 500.87890625 l 1
 759.602539062 663.4609375 l 1xd0
871.631835938 500.87890625 m 1
 592.708007812 -39.53515625 l 1
 892.122070312 -39.53515625 l 1
 892.122070312 500.87890625 l 1xc8
 871.631835938 500.87890625 l 1
132 667.5 m 1xa0
 181.145507812 667.5 l 1
 197.201171875 667.5 l 1
 532.838867188 667.5 l 1
 532.838867188 645.6484375 l 1
 207.334960938 645.6484375 l 1
 538.094726562 -67.5 l 1
 493.1484375 -67.5 l 1
 472.893554688 -67.5 l 1
 141.454101562 -67.5 l 1
 141.454101562 -45.6484375 l 1
 462.759765625 -45.6484375 l 1
 132 667.5 l 1xa0
EndSplineSet
Validated: 524289
EndChar

StartChar: uni3058
Encoding: 12376 12376 48
Width: 1029
Flags: W
HStem: -67.5 21.8516<141.454 462.76> 274.201 162.582<470.709 633.291> 434.355 22.7197<738.299 824.912> 645.648 21.8516<207.335 532.839 745.012 818.199>
VStem: 470.709 162.582<274.201 436.783> 666.022 22.7207<506.632 593.245> 735.175 92.8633<-67.5 402.742> 874.469 22.7217<506.632 593.245>
LayerCount: 2
Fore
SplineSet
735.174804688 -67.5 m 1x9f
 735.174804688 402.7421875 l 1
 828.038085938 402.7421875 l 1
 828.038085938 -67.5 l 1
 735.174804688 -67.5 l 1x9f
781.60546875 665.5234375 m 0
 845.3984375 665.5234375 897.190429688 613.731445312 897.190429688 549.938476562 c 0
 897.189453125 486.146484375 845.3984375 434.35546875 781.60546875 434.35546875 c 0xbf
 717.813476562 434.35546875 666.0234375 486.146484375 666.022460938 549.938476562 c 0
 666.022460938 613.731445312 717.813476562 665.522460938 781.60546875 665.5234375 c 0
781.60546875 642.801757812 m 0
 730.353515625 642.801757812 688.743164062 601.19140625 688.743164062 549.938476562 c 0
 688.743164062 498.686523438 730.353515625 457.075195312 781.60546875 457.075195312 c 0
 832.858398438 457.075195312 874.46875 498.686523438 874.46875 549.938476562 c 0
 874.46875 601.19140625 832.858398438 642.801757812 781.60546875 642.801757812 c 0
132 667.5 m 1
 181.145507812 667.5 l 1
 197.201171875 667.5 l 1
 532.838867188 667.5 l 1
 532.838867188 645.6484375 l 1
 207.334960938 645.6484375 l 1
 538.094726562 -67.5 l 1
 493.1484375 -67.5 l 1
 472.893554688 -67.5 l 1
 141.454101562 -67.5 l 1
 141.454101562 -45.6484375 l 1
 462.759765625 -45.6484375 l 1
 132 667.5 l 1
470.708984375 274.201171875 m 1xdf
 470.708984375 436.783203125 l 1
 633.291015625 436.783203125 l 1
 633.291015625 274.201171875 l 1
 470.708984375 274.201171875 l 1xdf
EndSplineSet
Validated: 524289
EndChar

StartChar: uni305A
Encoding: 12378 12378 49
Width: 1101
Flags: W
HStem: -67.5 21.8516<141.454 462.76> 56.1973 27.6445<659.98 949.776> 377.881 162.581<807.213 949.776> 512.817 27.6445<659.98 807.213> 645.648 21.8516<207.335 532.839>
VStem: 639.961 20.0195<83.8418 512.817> 807.213 162.582<377.881 512.817> 949.776 20.0186<83.8418 377.881>
LayerCount: 2
Fore
SplineSet
639.9609375 540.461914062 m 1xdd
 807.212890625 540.461914062 l 1xee
 969.794921875 540.461914062 l 1xdd
 969.794921875 377.880859375 l 1xee
 969.794921875 56.197265625 l 1
 639.9609375 56.197265625 l 1
 639.9609375 540.461914062 l 1xdd
659.98046875 512.817382812 m 1xde
 659.98046875 83.841796875 l 1
 949.776367188 83.841796875 l 1
 949.776367188 377.880859375 l 1xed
 807.212890625 377.880859375 l 1xee
 807.212890625 512.817382812 l 1
 659.98046875 512.817382812 l 1xde
132 667.5 m 1
 181.145507812 667.5 l 1
 197.201171875 667.5 l 1
 532.838867188 667.5 l 1
 532.838867188 645.6484375 l 1
 207.334960938 645.6484375 l 1
 538.094726562 -67.5 l 1
 493.1484375 -67.5 l 1
 472.893554688 -67.5 l 1
 141.454101562 -67.5 l 1
 141.454101562 -45.6484375 l 1
 462.759765625 -45.6484375 l 1
 132 667.5 l 1
EndSplineSet
Validated: 524289
EndChar

StartChar: uni305C
Encoding: 12380 12380 50
Width: 1055
Flags: W
HStem: -67.5 21.8516<141.454 462.76> 504.919 162.581<760.972 893.493> 645.648 21.8516<207.335 532.839 594.078 760.972>
VStem: 760.972 162.582<504.919 639.535> 893.493 30.0605<59.4199 504.919>
LayerCount: 2
Fore
SplineSet
546.287109375 667.5 m 1xa8
 760.971679688 667.5 l 1xd0
 923.553710938 667.5 l 1xa8
 923.553710938 504.918945312 l 1xd0
 923.553710938 -63.4609375 l 1
 546.287109375 667.5 l 1xa8
594.078125 639.53515625 m 1
 893.493164062 59.419921875 l 1
 893.493164062 504.918945312 l 1xc8
 760.971679688 504.918945312 l 1
 760.971679688 639.53515625 l 1
 594.078125 639.53515625 l 1
132 667.5 m 1xa0
 181.145507812 667.5 l 1
 197.201171875 667.5 l 1
 532.838867188 667.5 l 1
 532.838867188 645.6484375 l 1
 207.334960938 645.6484375 l 1
 538.094726562 -67.5 l 1
 493.1484375 -67.5 l 1
 472.893554688 -67.5 l 1
 141.454101562 -67.5 l 1
 141.454101562 -45.6484375 l 1
 462.759765625 -45.6484375 l 1
 132 667.5 l 1xa0
EndSplineSet
Validated: 524289
EndChar

StartChar: uni305E
Encoding: 12382 12382 51
Width: 1008
Flags: W
HStem: -67.5 21.8516<141.454 462.76> 127.423 25.6855<645.999 764.477> 432.651 162.581<384.99 547.571> 443.551 25.6855<645.999 764.477> 645.648 21.8516<207.335 532.839>
VStem: 384.99 162.581<432.651 595.232> 534.333 25.6855<239.091 357.569> 850.459 25.6855<239.091 357.569>
LayerCount: 2
Fore
SplineSet
705.23828125 469.236328125 m 0xdb
 799.563476562 469.236328125 876.143554688 392.65625 876.14453125 298.330078125 c 0
 876.14453125 204.004882812 799.563476562 127.423828125 705.23828125 127.422851562 c 0
 610.913085938 127.424804688 534.333007812 204.004882812 534.333007812 298.330078125 c 0
 534.333984375 392.655273438 610.913085938 469.235351562 705.23828125 469.236328125 c 0xdb
705.23828125 443.55078125 m 0
 625.088867188 443.549804688 560.018554688 378.479492188 560.018554688 298.330078125 c 0
 560.018554688 218.181640625 625.088867188 153.109375 705.23828125 153.108398438 c 0
 785.387695312 153.108398438 850.458984375 218.180664062 850.458984375 298.330078125 c 0
 850.458007812 378.479492188 785.387695312 443.55078125 705.23828125 443.55078125 c 0
132 667.5 m 1
 181.145507812 667.5 l 1
 197.201171875 667.5 l 1
 532.838867188 667.5 l 1
 532.838867188 645.6484375 l 1
 207.334960938 645.6484375 l 1
 538.094726562 -67.5 l 1
 493.1484375 -67.5 l 1
 472.893554688 -67.5 l 1
 141.454101562 -67.5 l 1
 141.454101562 -45.6484375 l 1
 462.759765625 -45.6484375 l 1
 132 667.5 l 1
384.990234375 432.651367188 m 1xed
 384.990234375 595.232421875 l 1
 547.571289062 595.232421875 l 1
 547.571289062 432.651367188 l 1
 384.990234375 432.651367188 l 1xed
EndSplineSet
Validated: 524289
EndChar

StartChar: uni3060
Encoding: 12384 12384 52
Width: 984
Flags: W
HStem: -67.5 27.9648<523.438 822.854> 254.557 88.9111<327.787 533.271> 504.919 162.581<690.334 771.087 804.447 822.854>
VStem: 132 90.8867<-67.5 667.5> 690.334 162.581<504.919 667.5> 822.854 30.0615<-39.5352 504.919>
LayerCount: 2
Fore
SplineSet
690.333984375 667.5 m 1xf8
 852.915039062 667.5 l 1
 852.915039062 663.4609375 l 1
 852.915039062 504.918945312 l 1xf8
 852.915039062 -67.5 l 1xf4
 475.645507812 -67.5 l 1
 771.086914062 504.918945312 l 1
 690.333984375 504.918945312 l 1
 690.333984375 667.5 l 1xf8
804.447265625 504.918945312 m 1
 523.4375 -39.53515625 l 1
 822.853515625 -39.53515625 l 1
 822.853515625 504.918945312 l 1xf4
 804.447265625 504.918945312 l 1
132 -67.5 m 1
 132 667.5 l 1
 222.88671875 667.5 l 1
 222.88671875 -67.5 l 1
 132 -67.5 l 1
327.787109375 254.556640625 m 1
 327.787109375 343.467773438 l 1
 533.271484375 343.467773438 l 1
 533.271484375 254.556640625 l 1
 327.787109375 254.556640625 l 1
EndSplineSet
Validated: 524289
EndChar

StartChar: uni3062
Encoding: 12386 12386 53
Width: 931
Flags: W
HStem: 254.557 88.9111<327.787 533.271> 415.246 162.581<327.787 490.369> 434.355 22.7197<640.456 727.068> 642.802 22.7217<640.456 727.068>
VStem: 132 90.8867<-67.5 667.5> 327.787 162.582<415.246 577.827> 568.179 22.7207<506.632 593.245> 637.331 92.8633<-67.5 402.742> 776.625 22.7217<506.632 593.245>
LayerCount: 2
Fore
SplineSet
637.331054688 -67.5 m 1x9f80
 637.331054688 402.7421875 l 1
 730.194335938 402.7421875 l 1
 730.194335938 -67.5 l 1
 637.331054688 -67.5 l 1x9f80
683.76171875 665.5234375 m 0
 747.5546875 665.5234375 799.346679688 613.731445312 799.346679688 549.938476562 c 0
 799.346679688 486.146484375 747.5546875 434.35546875 683.76171875 434.35546875 c 0xbf80
 619.970703125 434.35546875 568.1796875 486.146484375 568.178710938 549.938476562 c 0
 568.178710938 613.731445312 619.969726562 665.522460938 683.76171875 665.5234375 c 0
683.76171875 642.801757812 m 0
 632.509765625 642.801757812 590.899414062 601.19140625 590.899414062 549.938476562 c 0
 590.899414062 498.686523438 632.509765625 457.075195312 683.76171875 457.075195312 c 0
 735.014648438 457.075195312 776.625 498.686523438 776.625 549.938476562 c 0
 776.625 601.19140625 735.014648438 642.801757812 683.76171875 642.801757812 c 0
132 -67.5 m 1
 132 667.5 l 1
 222.88671875 667.5 l 1
 222.88671875 -67.5 l 1
 132 -67.5 l 1
327.787109375 254.556640625 m 1
 327.787109375 343.467773438 l 1
 533.271484375 343.467773438 l 1
 533.271484375 254.556640625 l 1
 327.787109375 254.556640625 l 1
327.787109375 415.24609375 m 1xdf80
 327.787109375 577.827148438 l 1
 490.369140625 577.827148438 l 1
 490.369140625 415.24609375 l 1
 327.787109375 415.24609375 l 1xdf80
EndSplineSet
Validated: 524289
EndChar

StartChar: uni3065
Encoding: 12389 12389 54
Width: 1096
Flags: W
HStem: 78.9512 27.6455<654.212 944.008> 254.557 88.9111<327.787 533.271> 400.635 162.582<801.444 944.008> 535.571 27.6455<654.212 801.444>
VStem: 132 90.8867<-67.5 667.5> 634.192 20.0195<106.597 535.571> 801.444 162.582<400.635 535.571> 944.008 20.0186<106.597 400.635>
LayerCount: 2
Fore
SplineSet
132 -67.5 m 1xcc
 132 667.5 l 1
 222.88671875 667.5 l 1
 222.88671875 -67.5 l 1
 132 -67.5 l 1xcc
327.787109375 254.556640625 m 1
 327.787109375 343.467773438 l 1
 533.271484375 343.467773438 l 1
 533.271484375 254.556640625 l 1
 327.787109375 254.556640625 l 1
634.192382812 563.216796875 m 1xdd
 801.444335938 563.216796875 l 1xee
 964.026367188 563.216796875 l 1xdd
 964.026367188 400.634765625 l 1xee
 964.026367188 78.951171875 l 1
 634.192382812 78.951171875 l 1
 634.192382812 563.216796875 l 1xdd
654.211914062 535.571289062 m 1xde
 654.211914062 106.596679688 l 1
 944.0078125 106.596679688 l 1
 944.0078125 400.634765625 l 1xed
 801.444335938 400.634765625 l 1xee
 801.444335938 535.571289062 l 1
 654.211914062 535.571289062 l 1xde
EndSplineSet
Validated: 524289
EndChar

StartChar: uni3067
Encoding: 12391 12391 55
Width: 980
Flags: W
HStem: 254.557 88.9111<327.787 533.271> 504.919 162.581<685.883 818.403> 639.535 27.9648<518.99 685.883>
VStem: 132 90.8867<-67.5 667.5> 685.883 162.582<504.919 639.535> 818.403 30.0615<59.4199 504.919>
LayerCount: 2
Fore
SplineSet
132 -67.5 m 1xb0
 132 667.5 l 1
 222.88671875 667.5 l 1
 222.88671875 -67.5 l 1
 132 -67.5 l 1xb0
327.787109375 254.556640625 m 1
 327.787109375 343.467773438 l 1
 533.271484375 343.467773438 l 1
 533.271484375 254.556640625 l 1
 327.787109375 254.556640625 l 1
471.198242188 667.5 m 1
 685.8828125 667.5 l 1xd8
 848.46484375 667.5 l 1xb4
 848.46484375 504.918945312 l 1xd8
 848.46484375 -63.4609375 l 1xd4
 471.198242188 667.5 l 1
518.990234375 639.53515625 m 1xb8
 818.403320312 59.419921875 l 1
 818.403320312 504.918945312 l 1xd4
 685.8828125 504.918945312 l 1xd8
 685.8828125 639.53515625 l 1
 518.990234375 639.53515625 l 1xb8
EndSplineSet
Validated: 524289
EndChar

StartChar: uni3069
Encoding: 12393 12393 56
Width: 1123
Flags: W
HStem: 127.423 25.6855<761.357 879.835> 254.557 88.9111<327.787 533.271> 415.169 162.581<327.787 490.369> 443.551 25.6855<761.357 879.835>
VStem: 132 90.8867<-67.5 667.5> 327.787 162.582<415.169 577.75> 649.691 25.6846<239.091 357.569> 965.816 25.6855<239.091 357.569>
LayerCount: 2
Fore
SplineSet
132 -67.5 m 1xcf
 132 667.5 l 1
 222.88671875 667.5 l 1
 222.88671875 -67.5 l 1
 132 -67.5 l 1xcf
327.787109375 254.556640625 m 1
 327.787109375 343.467773438 l 1
 533.271484375 343.467773438 l 1
 533.271484375 254.556640625 l 1
 327.787109375 254.556640625 l 1
820.595703125 469.236328125 m 0xdf
 914.920898438 469.236328125 991.500976562 392.65625 991.501953125 298.330078125 c 0
 991.501953125 204.004882812 914.920898438 127.423828125 820.595703125 127.422851562 c 0
 726.270507812 127.424804688 649.69140625 204.005859375 649.69140625 298.330078125 c 0
 649.692382812 392.655273438 726.271484375 469.234375 820.595703125 469.236328125 c 0xdf
820.595703125 443.55078125 m 0
 740.446289062 443.549804688 675.375976562 378.479492188 675.375976562 298.330078125 c 0
 675.375976562 218.181640625 740.446289062 153.109375 820.595703125 153.108398438 c 0
 900.745117188 153.108398438 965.81640625 218.180664062 965.81640625 298.330078125 c 0
 965.815429688 378.479492188 900.744140625 443.55078125 820.595703125 443.55078125 c 0
327.787109375 415.168945312 m 1xef
 327.787109375 577.75 l 1
 490.369140625 577.75 l 1
 490.369140625 415.168945312 l 1
 327.787109375 415.168945312 l 1xef
EndSplineSet
Validated: 524289
EndChar

StartChar: uni3070
Encoding: 12400 12400 57
Width: 1120
Flags: W
HStem: -67.5 21.7334<222.888 606.292 659.435 958.85> 504.919 162.581<826.329 907.083 940.443 958.85>
VStem: 132 90.8877<-45.7666 667.5> 826.329 162.582<504.919 667.5> 958.85 30.0615<-39.5352 504.919>
LayerCount: 2
Fore
SplineSet
826.329101562 667.5 m 1xf0
 988.911132812 667.5 l 1
 988.911132812 663.4609375 l 1
 988.911132812 504.918945312 l 1xf0
 988.911132812 -67.5 l 1xe8
 611.641601562 -67.5 l 1
 907.083007812 504.918945312 l 1
 826.329101562 504.918945312 l 1
 826.329101562 667.5 l 1xf0
940.443359375 504.918945312 m 1
 659.434570312 -39.53515625 l 1
 958.849609375 -39.53515625 l 1
 958.849609375 504.918945312 l 1xe8
 940.443359375 504.918945312 l 1
132 667.5 m 1
 222.887695312 667.5 l 1
 222.887695312 -45.7666015625 l 1
 606.291992188 -45.7666015625 l 1
 606.291992188 -67.5 l 1
 222.887695312 -67.5 l 1
 170.586914062 -67.5 l 1
 132 -67.5 l 1
 132 667.5 l 1
EndSplineSet
Validated: 524289
EndChar

StartChar: uni3073
Encoding: 12403 12403 58
Width: 1044
Flags: W
HStem: -67.5 21.7334<222.888 606.292> 271.498 162.581<404.177 566.758> 434.355 22.7197<753.698 840.311> 642.802 22.7217<753.698 840.311>
VStem: 132 90.8877<-45.7666 667.5> 404.177 162.581<271.498 434.079> 681.421 22.7207<506.632 593.245> 750.573 92.8633<-67.5 402.742> 889.867 22.7217<506.632 593.245>
LayerCount: 2
Fore
SplineSet
750.573242188 -67.5 m 1
 750.573242188 402.7421875 l 1
 843.436523438 402.7421875 l 1
 843.436523438 -67.5 l 1
 750.573242188 -67.5 l 1
797.00390625 665.5234375 m 0
 860.796875 665.5234375 912.588867188 613.731445312 912.588867188 549.938476562 c 0
 912.587890625 486.146484375 860.796875 434.35546875 797.00390625 434.35546875 c 0
 733.211914062 434.35546875 681.421875 486.146484375 681.420898438 549.938476562 c 0
 681.420898438 613.731445312 733.211914062 665.522460938 797.00390625 665.5234375 c 0
797.00390625 642.801757812 m 0
 745.751953125 642.801757812 704.141601562 601.19140625 704.141601562 549.938476562 c 0
 704.141601562 498.686523438 745.751953125 457.075195312 797.00390625 457.075195312 c 0
 848.256835938 457.075195312 889.8671875 498.686523438 889.8671875 549.938476562 c 0
 889.8671875 601.19140625 848.256835938 642.801757812 797.00390625 642.801757812 c 0
132 667.5 m 1
 222.887695312 667.5 l 1
 222.887695312 -45.7666015625 l 1
 606.291992188 -45.7666015625 l 1
 606.291992188 -67.5 l 1
 222.887695312 -67.5 l 1
 170.586914062 -67.5 l 1
 132 -67.5 l 1
 132 667.5 l 1
404.176757812 271.498046875 m 1
 404.176757812 434.079101562 l 1
 566.7578125 434.079101562 l 1
 566.7578125 271.498046875 l 1
 404.176757812 271.498046875 l 1
EndSplineSet
Validated: 524289
EndChar

StartChar: uni3076
Encoding: 12406 12406 59
Width: 909
Flags: W
HStem: -67.5 21.7334<222.888 606.292> 183.235 27.6445<467.787 757.584> 504.919 162.581<615.021 757.584> 639.855 27.6445<467.787 615.021>
VStem: 132 90.8877<-45.7666 667.5> 447.768 20.0195<210.88 639.855> 615.021 162.581<504.919 639.855> 757.584 20.0186<210.88 504.919>
LayerCount: 2
Fore
SplineSet
447.767578125 667.5 m 1xdd
 615.021484375 667.5 l 1xee
 777.602539062 667.5 l 1xdd
 777.602539062 504.918945312 l 1xee
 777.602539062 183.235351562 l 1
 447.767578125 183.235351562 l 1
 447.767578125 667.5 l 1xdd
467.787109375 639.85546875 m 1xde
 467.787109375 210.879882812 l 1
 757.583984375 210.879882812 l 1
 757.583984375 504.918945312 l 1xed
 615.021484375 504.918945312 l 1xee
 615.021484375 639.85546875 l 1
 467.787109375 639.85546875 l 1xde
132 667.5 m 1xdc
 222.887695312 667.5 l 1
 222.887695312 -45.7666015625 l 1
 606.291992188 -45.7666015625 l 1
 606.291992188 -67.5 l 1
 222.887695312 -67.5 l 1
 170.586914062 -67.5 l 1
 132 -67.5 l 1
 132 667.5 l 1xdc
EndSplineSet
Validated: 524289
EndChar

StartChar: uni3079
Encoding: 12409 12409 60
Width: 943
Flags: W
HStem: -67.5 21.7334<222.888 606.292> 504.919 162.581<649.371 781.892> 639.535 27.9648<482.478 649.371>
VStem: 132 90.8877<-45.7666 667.5> 649.371 162.581<504.919 639.535> 781.892 30.0605<59.4199 504.919>
LayerCount: 2
Fore
SplineSet
434.685546875 667.5 m 1xb4
 649.37109375 667.5 l 1xd8
 811.952148438 667.5 l 1xb4
 811.952148438 504.918945312 l 1xd8
 811.952148438 -63.4609375 l 1
 434.685546875 667.5 l 1xb4
482.477539062 639.53515625 m 1xb8
 781.891601562 59.419921875 l 1
 781.891601562 504.918945312 l 1xd4
 649.37109375 504.918945312 l 1xd8
 649.37109375 639.53515625 l 1
 482.477539062 639.53515625 l 1xb8
132 667.5 m 1xb0
 222.887695312 667.5 l 1
 222.887695312 -45.7666015625 l 1
 606.291992188 -45.7666015625 l 1
 606.291992188 -67.5 l 1
 222.887695312 -67.5 l 1
 170.586914062 -67.5 l 1
 132 -67.5 l 1
 132 667.5 l 1xb0
EndSplineSet
Validated: 524289
EndChar

StartChar: uni307C
Encoding: 12412 12412 61
Width: 957
Flags: W
HStem: -67.5 21.7334<222.888 606.292> 127.423 25.6855<595.25 713.729> 417.184 162.581<292.341 454.922> 443.551 25.6855<595.25 713.728>
VStem: 132 90.8877<-45.7666 667.5> 292.341 162.581<417.184 579.765> 483.583 25.6855<239.091 357.569> 799.711 25.6855<239.091 357.57>
LayerCount: 2
Fore
SplineSet
654.489257812 469.236328125 m 0xdf
 748.814453125 469.236328125 825.395507812 392.65625 825.396484375 298.330078125 c 0
 825.396484375 204.00390625 748.815429688 127.422851562 654.489257812 127.422851562 c 0
 560.163085938 127.423828125 483.583007812 204.004882812 483.583007812 298.330078125 c 0
 483.583984375 392.655273438 560.1640625 469.235351562 654.489257812 469.236328125 c 0xdf
654.489257812 443.55078125 m 0
 574.33984375 443.55078125 509.26953125 378.479492188 509.268554688 298.330078125 c 0
 509.268554688 218.180664062 574.33984375 153.109375 654.489257812 153.108398438 c 0
 734.638671875 153.108398438 799.7109375 218.180664062 799.7109375 298.330078125 c 0
 799.709960938 378.48046875 734.638671875 443.55078125 654.489257812 443.55078125 c 0
132 667.5 m 1
 222.887695312 667.5 l 1
 222.887695312 -45.7666015625 l 1
 606.291992188 -45.7666015625 l 1
 606.291992188 -67.5 l 1
 222.887695312 -67.5 l 1
 170.586914062 -67.5 l 1
 132 -67.5 l 1
 132 667.5 l 1
292.340820312 417.18359375 m 1xef
 292.340820312 579.764648438 l 1
 454.921875 579.764648438 l 1
 454.921875 417.18359375 l 1
 292.340820312 417.18359375 l 1xef
EndSplineSet
Validated: 524289
EndChar

StartChar: uni3093
Encoding: 12435 12435 62
Width: 667
Flags: W
HStem: -67.5 24.0625<411.021 483.935> 83.8535 24.0615<411.021 483.935>
VStem: 132 90.8867<-67.5 667.5> 359.771 24.0625<-16.2492 56.6649> 511.124 24.0605<-16.2489 56.6649>
LayerCount: 2
Fore
SplineSet
447.478515625 107.915039062 m 0
 495.884765625 107.915039062 535.184570312 68.6142578125 535.184570312 20.2080078125 c 0
 535.184570312 -28.1982421875 495.884765625 -67.4990234375 447.478515625 -67.5 c 0
 399.071289062 -67.5 359.770507812 -28.19921875 359.770507812 20.2080078125 c 0
 359.770507812 68.6142578125 399.071289062 107.915039062 447.478515625 107.915039062 c 0
447.478515625 83.853515625 m 0
 412.3515625 83.853515625 383.833007812 55.3349609375 383.833007812 20.2080078125 c 0
 383.833007812 -14.9189453125 412.3515625 -43.4375 447.478515625 -43.4375 c 0
 482.60546875 -43.4375 511.124023438 -14.9189453125 511.124023438 20.2080078125 c 0
 511.124023438 55.3349609375 482.60546875 83.853515625 447.478515625 83.853515625 c 0
132 -67.5 m 1
 132 667.5 l 1
 222.88671875 667.5 l 1
 222.88671875 -67.5 l 1
 132 -67.5 l 1
EndSplineSet
Validated: 524289
EndChar

StartChar: uni30FC
Encoding: 12540 12540 165
Width: 1003
HStem: 230.909 139.373<200 803.952>
LayerCount: 2
Fore
SplineSet
200 230.909179688 m 1
 200 370.282226562 l 1
 803.952148438 370.282226562 l 1
 803.952148438 230.909179688 l 1
 200 230.909179688 l 1
EndSplineSet
Validated: 1
EndChar

StartChar: uni304D
Encoding: 12365 12365 166
Width: 1044
Flags: W
HStem: 434.355 22.7197<753.116 839.729> 642.802 22.7217<753.116 839.729>
VStem: 132 100.767<-24.6055 667.5> 680.839 22.7207<506.632 593.245> 749.991 92.8633<-67.5 402.742> 889.285 22.7217<506.632 593.245>
LayerCount: 2
Fore
SplineSet
749.991210938 -67.5 m 1
 749.991210938 402.7421875 l 1
 842.854492188 402.7421875 l 1
 842.854492188 -67.5 l 1
 749.991210938 -67.5 l 1
796.421875 665.5234375 m 0
 860.21484375 665.5234375 912.006835938 613.731445312 912.006835938 549.938476562 c 0
 912.006835938 486.146484375 860.21484375 434.35546875 796.421875 434.35546875 c 0
 732.630859375 434.35546875 680.83984375 486.146484375 680.838867188 549.938476562 c 0
 680.838867188 613.731445312 732.629882812 665.522460938 796.421875 665.5234375 c 0
796.421875 642.801757812 m 0
 745.169921875 642.801757812 703.559570312 601.19140625 703.559570312 549.938476562 c 0
 703.559570312 498.686523438 745.169921875 457.075195312 796.421875 457.075195312 c 0
 847.674804688 457.075195312 889.28515625 498.686523438 889.28515625 549.938476562 c 0
 889.28515625 601.19140625 847.674804688 642.801757812 796.421875 642.801757812 c 0
132 667.5 m 1
 232.766601562 667.5 l 1
 232.766601562 -24.60546875 l 1
 555.5 667.5 l 1
 626.62890625 667.5 l 1
 283.893554688 -67.5 l 1
 232.766601562 -67.5 l 1
 212.763671875 -67.5 l 1
 132 -67.5 l 1
 132 667.5 l 1
EndSplineSet
Validated: 524289
EndChar
